<mxfile host="65bd71144e">
    <diagram name="Architecture" id="architecture">
        <mxGraphModel dx="894" dy="709" grid="1" gridSize="10" guides="1" tooltips="1" connect="1" arrows="1" fold="1" page="1" pageScale="1" pageWidth="827" pageHeight="1169" math="0" shadow="0">
            <root>
                <mxCell id="0"/>
                <mxCell id="1" parent="0"/>
                <mxCell id="2" value="Frontend Pages&#10;&#10;- index.html&#10;- kurser.html&#10;- course-details.html&#10;- admin.html&#10;- about.html&#10;- kontakt.html" style="rounded=1;whiteSpace=wrap;html=1;fillColor=#dae8fc;strokeColor=#6c8ebf;align=left;spacingLeft=10;fontColor=#000000;" parent="1" vertex="1">
                    <mxGeometry x="40" y="40" width="200" height="120" as="geometry"/>
                </mxCell>
                <mxCell id="3" value="TypeScript Controllers&#10;&#10;- courses.ts&#10;- course-details.ts&#10;- admin.ts" style="rounded=1;whiteSpace=wrap;html=1;fillColor=#d5e8d4;strokeColor=#82b366;align=left;spacingLeft=10;fontColor=#000000;" parent="1" vertex="1">
                    <mxGeometry x="320" y="40" width="200" height="120" as="geometry"/>
                </mxCell>
                <mxCell id="4" value="Services Layer&#10;&#10;- course-services.ts&#10;- booking-services.ts&#10;- schedule-services.ts" style="rounded=1;whiteSpace=wrap;html=1;fillColor=#ffe6cc;strokeColor=#d79b00;align=left;spacingLeft=10;fontColor=#000000;" parent="1" vertex="1">
                    <mxGeometry x="320" y="240" width="200" height="120" as="geometry"/>
                </mxCell>
                <mxCell id="5" value="HTTP Client&#10;&#10;httpClient.ts&#10;- get()&#10;- post()" style="rounded=1;whiteSpace=wrap;html=1;fillColor=#fff2cc;strokeColor=#d6b656;align=left;spacingLeft=10;fontColor=#000000;" parent="1" vertex="1">
                    <mxGeometry x="320" y="440" width="200" height="100" as="geometry"/>
                </mxCell>
                <mxCell id="6" value="Models&#10;&#10;- ICourse&#10;- IBooking&#10;- ISchedule" style="rounded=1;whiteSpace=wrap;html=1;fillColor=#e1d5e7;strokeColor=#9673a6;align=left;spacingLeft=10;fontColor=#000000;" parent="1" vertex="1">
                    <mxGeometry x="600" y="240" width="160" height="120" as="geometry"/>
                </mxCell>
                <mxCell id="7" value="Utils&#10;&#10;dom.ts&#10;- displayMessage()&#10;- displayError()&#10;- createCourseElement()" style="rounded=1;whiteSpace=wrap;html=1;fillColor=#f8cecc;strokeColor=#b85450;align=left;spacingLeft=10;fontColor=#000000;" parent="1" vertex="1">
                    <mxGeometry x="600" y="40" width="160" height="120" as="geometry"/>
                </mxCell>
                <mxCell id="8" value="JSON Server&#10;(Backend)" style="ellipse;whiteSpace=wrap;html=1;fillColor=#f5f5f5;strokeColor=#666666;fontColor=#333333;" parent="1" vertex="1">
                    <mxGeometry x="360" y="600" width="120" height="80" as="geometry"/>
                </mxCell>
                <mxCell id="9" value="" style="endArrow=classic;html=1;exitX=1;exitY=0.5;entryX=0;entryY=0.5;fontColor=#000000;" parent="1" source="2" target="3" edge="1">
                    <mxGeometry width="50" height="50" relative="1" as="geometry"/>
                </mxCell>
                <mxCell id="10" value="" style="endArrow=classic;html=1;exitX=0.5;exitY=1;entryX=0.5;entryY=0;fontColor=#000000;" parent="1" source="3" target="4" edge="1">
                    <mxGeometry width="50" height="50" relative="1" as="geometry"/>
                </mxCell>
                <mxCell id="11" value="" style="endArrow=classic;html=1;exitX=0.5;exitY=1;entryX=0.5;entryY=0;fontColor=#000000;" parent="1" source="4" target="5" edge="1">
                    <mxGeometry width="50" height="50" relative="1" as="geometry"/>
                </mxCell>
                <mxCell id="12" value="" style="endArrow=classic;html=1;exitX=0.5;exitY=1;entryX=0.5;entryY=0;fontColor=#000000;" parent="1" source="5" target="8" edge="1">
                    <mxGeometry width="50" height="50" relative="1" as="geometry"/>
                </mxCell>
                <mxCell id="13" value="" style="endArrow=classic;html=1;exitX=1;exitY=0.5;entryX=0;entryY=0.5;fontColor=#000000;" parent="1" source="4" target="6" edge="1">
                    <mxGeometry width="50" height="50" relative="1" as="geometry"/>
                </mxCell>
                <mxCell id="14" value="" style="endArrow=classic;html=1;exitX=1;exitY=0.5;entryX=0;entryY=0.5;fontColor=#000000;" parent="1" source="3" target="7" edge="1">
                    <mxGeometry width="50" height="50" relative="1" as="geometry"/>
                </mxCell>
            </root>
        </mxGraphModel>
    </diagram>
</mxfile>